<svg width="512" height="512" viewBox="0 0 512 512" fill="none" xmlns="http://www.w3.org/2000/svg">
<path d="M432 175.37L409.2 212.46L303.47 216.77L224.01 152L214.02 103.2L252.28 144.54C268.513 162.081 289.019 175.111 311.795 182.357C334.57 189.603 358.835 190.817 382.22 185.88L432 175.37Z" fill="#D78E0C" id="id_101"></path>
<path d="M224.011 152L208.628 76.8901C208.08 74.2068 208.28 71.4245 209.206 68.8472C210.133 66.27 211.75 63.9971 213.881 62.2771V62.2771C216.642 60.0492 220.105 58.8769 223.652 58.97C227.198 59.0631 230.595 60.4155 233.235 62.7851L285.707 109.885C301.557 124.111 320.212 134.858 340.469 141.435L356.678 146.697C383.276 155.332 411.737 156.486 438.947 150.033L447.947 148.033L423.629 211.88L303.472 216.77L224.011 152Z" fill="#ECAB2C" id="id_102"></path>
<path d="M200 219.868L184.874 197.493C173.792 180.154 167.766 160.068 167.474 139.493L167.074 111.705C167.013 107.409 168.576 103.249 171.45 100.056C174.323 96.8634 178.296 94.8725 182.574 94.4817C185.175 94.2443 187.796 94.6077 190.235 95.544C192.673 96.4803 194.864 97.9644 196.638 99.8817L243.902 150.956C253.44 161.263 264.495 170.056 276.684 177.031V177.031C306.101 193.867 340.681 199.301 373.844 192.3L423.629 181.789L376 259.247L200 219.868Z" fill="#ECAB2C" id="id_103"></path>
<path d="M46.9497 146.7L76.7977 146.721C81.8725 146.724 86.8508 148.107 91.2005 150.721C95.5502 153.335 99.1077 157.082 101.493 161.562L115.52 187.908L86.9517 191.748C80.6503 192.595 74.2483 191.272 68.7986 187.997C63.349 184.722 59.1762 179.689 56.9667 173.728L46.9497 146.7Z" fill="#4E965A" id="id_104"></path>
<path d="M442.772 125.392L434.572 168.642L402.041 203.771C387.189 219.809 368.065 231.272 346.919 236.809V236.809C321.809 243.385 295.211 241.253 271.47 230.76L217.215 206.783C202.05 200.082 185.74 196.353 169.17 195.8L162.67 195.583C160.608 195.514 158.556 195.908 156.667 196.737C154.777 197.565 153.097 198.806 151.75 200.369C150.403 201.932 149.423 203.778 148.883 205.769C148.343 207.76 148.256 209.848 148.629 211.877V211.877C154.402 243.311 171.589 271.502 196.888 291.032L204.255 296.718C233.466 319.268 268.654 332.747 305.455 335.483C340.501 338.087 375.577 330.841 406.722 314.564L415.144 310.164C442.325 295.959 462.749 271.539 471.924 242.275C477.944 223.074 478.849 202.633 474.549 182.975L470.7 165.346L480 134.139L442.772 125.392Z" fill="#ECAB2C" id="id_105"></path>
<path d="M120 344C155.346 344 184 315.346 184 280C184 244.654 155.346 216 120 216C84.6538 216 56 244.654 56 280C56 315.346 84.6538 344 120 344Z" fill="#DA7E21" id="id_106"></path>
<path d="M449.006 348.16C467.675 327.5 471.773 299.113 461.52 276.713C463.82 267.379 461.339 257.452 454.114 250.923C446.889 244.394 436.761 242.923 427.707 246.16C404.386 238.223 376.558 245.168 357.89 265.828C339.222 286.488 335.123 314.875 345.375 337.276C343.075 346.61 345.556 356.537 352.782 363.066C360.008 369.595 370.134 371.066 379.188 367.829C402.51 375.766 430.337 368.821 449.006 348.16Z" fill="#FFC864" id="id_107"></path>
<path d="M359.428 448H152.572C125.587 448 99.476 438.427 78.8857 420.984C58.2953 403.541 44.5603 379.359 40.124 352.741L40 352H472L471.876 352.741C467.44 379.359 453.705 403.541 433.114 420.984C412.524 438.427 386.414 448 359.428 448V448Z" fill="#7A4922" id="id_108"></path>
<path d="M472 352L471.88 352.74C471.47 355.19 470.99 357.61 470.42 360H41.58C41.01 357.61 40.53 355.19 40.12 352.74L40 352H472Z" fill="#7A4922" id="id_109"></path>
<path d="M256 216C248.944 211.296 240.624 208.85 232.145 208.987C223.665 209.124 215.429 211.836 208.528 216.765V216.765C199.217 223.416 192.38 232.971 189.089 243.93C185.799 254.889 186.242 266.63 190.35 277.31L210.626 330.027C212.208 334.139 214.998 337.676 218.63 340.17C222.262 342.664 226.565 344 230.971 344C236.752 344 242.297 341.703 246.385 337.615L246.61 337.39C247.843 336.157 249.307 335.179 250.918 334.511C252.529 333.844 254.256 333.5 256 333.5C257.744 333.5 259.47 333.844 261.082 334.511C262.693 335.179 264.157 336.157 265.39 337.39L265.615 337.615C269.703 341.703 275.247 344 281.029 344C285.435 344 289.737 342.664 293.369 340.17C297.001 337.676 299.792 334.139 301.374 330.027L321.65 277.31C325.757 266.63 326.2 254.889 322.91 243.93C319.62 232.971 312.782 223.416 303.472 216.765V216.765C296.571 211.836 288.334 209.124 279.855 208.987C271.376 208.85 263.056 211.296 256 216Z" fill="#E42A3C" id="id_110"></path>
<path d="M472 320H40C31.1634 320 24 327.163 24 336C24 344.837 31.1634 352 40 352H472C480.837 352 488 344.837 488 336C488 327.163 480.837 320 472 320Z" fill="#7A4922" id="id_111"></path>
<path d="M136 264C140.418 264 144 260.418 144 256C144 251.582 140.418 248 136 248C131.582 248 128 251.582 128 256C128 260.418 131.582 264 136 264Z" fill="#fcfcfc" id="id_112"></path>
<path d="M136 296C140.418 296 144 292.418 144 288C144 283.582 140.418 280 136 280C131.582 280 128 283.582 128 288C128 292.418 131.582 296 136 296Z" fill="#ffffff" id="id_113"></path>
<path d="M104 280C108.418 280 112 276.418 112 272C112 267.582 108.418 264 104 264C99.5817 264 96 267.582 96 272C96 276.418 99.5817 280 104 280Z" fill="#ffffff" id="id_114"></path>
<path d="M496 336C495.992 330.04 493.77 324.296 489.766 319.883C485.761 315.469 480.26 312.701 474.329 312.115C476.041 299.842 474.5 287.334 469.861 275.843C470.357 272.842 470.467 269.791 470.189 266.762C484.405 240.656 488.731 210.3 482.374 181.262L478.959 165.652L487.667 136.424C487.978 135.379 488.073 134.282 487.944 133.199C487.816 132.117 487.468 131.072 486.922 130.129C486.375 129.185 485.641 128.364 484.766 127.714C483.89 127.065 482.891 126.601 481.83 126.352L444.6 117.6C443.549 117.353 442.458 117.321 441.394 117.507C440.33 117.693 439.315 118.092 438.41 118.681C437.504 119.269 436.727 120.035 436.126 120.932C435.524 121.829 435.111 122.839 434.91 123.9L431.2 143.5C407.197 148.142 382.409 146.624 359.152 139.087L342.942 133.824C323.737 127.617 306.056 117.431 291.054 103.93L238.579 56.8319C234.988 53.6094 230.473 51.6012 225.675 51.0933C220.877 50.5854 216.041 51.6035 211.855 54.0027C207.67 56.402 204.347 60.0603 202.361 64.457C200.374 68.8537 199.825 73.765 200.791 78.4919L204.491 96.5809L202.518 94.4479C199.076 90.7286 194.587 88.1407 189.643 87.0257C184.7 85.9107 179.535 86.3211 174.829 88.2028C170.124 90.0844 166.1 93.3488 163.289 97.565C160.477 101.781 159.01 106.751 159.082 111.818L159.477 139.607C159.722 156.284 163.478 172.723 170.5 187.852C170.146 187.837 169.792 187.815 169.438 187.804L162.938 187.587C159.88 187.485 156.835 188.027 154 189.179C151.165 190.331 148.605 192.066 146.485 194.273C144.365 196.479 142.734 199.107 141.696 201.986C140.659 204.864 140.238 207.928 140.463 210.98C136.392 209.77 132.221 208.925 128 208.455V168C127.998 166.124 127.338 164.308 126.133 162.87C124.929 161.432 123.257 160.463 121.411 160.132C119.564 159.801 117.66 160.13 116.031 161.06C114.403 161.991 113.153 163.464 112.5 165.223L108.55 157.803C105.489 152.039 100.917 147.218 95.323 143.856C89.7294 140.495 83.3259 138.72 76.7999 138.722L46.9559 138.7H46.9499C45.66 138.7 44.3893 139.012 43.2461 139.61C42.1028 140.207 41.121 141.072 40.3844 142.131C39.6477 143.19 39.178 144.411 39.0153 145.691C38.8525 146.97 39.0017 148.27 39.4499 149.48L49.4669 176.509C51.9854 183.406 56.5652 189.36 62.5844 193.564C68.6037 197.768 75.7708 200.018 83.1129 200.009C84.7537 200.008 86.3927 199.899 88.0189 199.68L112 196.454V208.454C100.495 209.736 89.4692 213.774 79.8578 220.226C70.2464 226.678 62.3332 235.353 56.7894 245.516C51.2456 255.678 48.2348 267.028 48.0126 278.602C47.7904 290.176 50.3633 301.632 55.5129 312H39.9999C34.2368 312.005 28.668 314.084 24.3112 317.857C19.9544 321.629 17.1006 326.843 16.2713 332.547C15.442 338.25 16.6927 344.061 19.7947 348.918C22.8967 353.775 27.6429 357.354 33.1659 359C38.9049 386.421 53.9068 411.031 75.6512 428.695C97.3955 446.359 124.557 456.001 152.572 456H359.428C387.443 456.001 414.604 446.359 436.349 428.695C458.093 411.031 473.095 386.421 478.834 359C483.788 357.522 488.134 354.486 491.226 350.343C494.318 346.2 495.992 341.17 496 336V336ZM85.8869 183.82C81.3833 184.446 76.801 183.51 72.9038 181.168C69.0065 178.826 66.0295 175.219 64.4689 170.948L58.4499 154.708L76.7919 154.722C80.4175 154.721 83.9751 155.707 87.0828 157.574C90.1905 159.442 92.731 162.12 94.4319 165.322L103.052 181.513L85.8869 183.82ZM245.275 312L237.067 292.849C236.663 291.87 236.068 290.981 235.317 290.233C234.566 289.486 233.674 288.895 232.693 288.495C231.712 288.095 230.662 287.894 229.603 287.903C228.543 287.913 227.496 288.132 226.523 288.549C225.549 288.967 224.668 289.573 223.93 290.333C223.193 291.094 222.613 291.993 222.226 292.979C221.839 293.965 221.652 295.019 221.675 296.078C221.698 297.137 221.931 298.181 222.361 299.149L227.868 312H212.268L197.821 274.438C194.349 265.413 193.975 255.491 196.755 246.23C199.535 236.97 205.314 228.895 213.182 223.275C218.771 219.313 225.428 217.134 232.278 217.023C239.128 216.913 245.852 218.876 251.566 222.656C252.88 223.532 254.424 224 256.004 224C257.583 224 259.128 223.532 260.442 222.656C266.156 218.876 272.88 216.913 279.73 217.023C286.58 217.134 293.237 219.313 298.826 223.275C306.694 228.895 312.472 236.97 315.253 246.23C318.033 255.491 317.658 265.413 314.187 274.438L299.736 312H245.275ZM189.715 297.945L195.121 312H184.487C186.711 307.508 188.463 302.798 189.715 297.945V297.945ZM276.04 185.806C306.453 202.202 341.697 207.275 375.5 200.122L399.145 195.13L396.176 198.336C378.092 217.876 353.353 229.944 326.823 232.168C322.479 223.442 316.057 215.917 308.123 210.256C302.094 205.983 295.194 203.097 287.919 201.805C280.643 200.513 273.171 200.848 266.04 202.785C268.025 196.432 271.446 190.622 276.04 185.806V185.806ZM327.5 284.391C330.894 284.051 334.274 283.594 337.639 283.02C333.808 292.199 331.853 302.053 331.891 312H316.879L327.5 284.391ZM347.893 312C347.914 296.883 353.599 282.323 363.825 271.191C379.914 253.391 403.979 246.535 425.13 253.733C426.84 254.314 428.696 254.301 430.397 253.694C436.964 251.351 443.997 252.562 448.75 256.858C453.503 261.154 455.421 268.028 453.75 274.798C453.318 276.552 453.492 278.4 454.244 280.042C458.728 290.06 460.095 301.195 458.167 312H347.893ZM449.076 135.091L469.911 139.986L463.036 163.062C462.65 164.359 462.599 165.733 462.888 167.055L466.743 184.68C470.737 202.98 469.895 222.005 464.299 239.88C463.523 242.357 462.647 244.804 461.693 247.22C460.993 246.448 460.26 245.696 459.478 244.988C455.216 241.22 450.075 238.584 444.527 237.323C438.98 236.063 433.205 236.218 427.733 237.774C426 237.259 424.255 236.816 422.5 236.444C431.987 225.973 439.917 214.191 446.046 201.461L449.815 193.648C450.736 191.736 450.861 189.537 450.16 187.534C449.46 185.531 447.993 183.888 446.081 182.966C444.17 182.045 441.971 181.921 439.967 182.621C437.964 183.321 436.321 184.788 435.4 186.7L431.631 194.513C424.195 209.965 413.805 223.81 401.047 235.268C382.116 237.269 364.61 246.254 351.947 260.468C350.88 261.65 349.854 262.859 348.867 264.094C343.465 265.634 337.97 266.827 332.416 267.667C333.414 261.047 333.287 254.306 332.041 247.729C361.115 244.351 388.022 230.689 407.906 209.21L440.436 174.08C441.457 172.978 442.147 171.611 442.427 170.135L449.076 135.091ZM216.466 75.2909C216.174 73.8616 216.34 72.3766 216.941 71.0472C217.541 69.7178 218.546 68.6117 219.812 67.8864C221.078 67.161 222.54 66.8533 223.99 67.0071C225.441 67.1609 226.806 67.7683 227.892 68.7429L280.364 115.843C297.029 130.836 316.668 142.147 338 149.039L354.209 154.302C370.221 159.496 386.949 162.14 403.782 162.138C411.895 162.134 419.996 161.515 428.016 160.287L427.143 164.893L417.965 174.803L372.192 184.468C344.873 190.246 316.419 187.075 291.043 175.424L291.579 175.155C292.527 174.69 293.373 174.042 294.07 173.249C294.766 172.455 295.299 171.531 295.636 170.531C295.974 169.531 296.11 168.473 296.038 167.42C295.965 166.367 295.684 165.338 295.212 164.394C294.74 163.45 294.085 162.608 293.286 161.918C292.487 161.228 291.559 160.703 290.556 160.373C289.554 160.043 288.495 159.915 287.442 159.996C286.39 160.077 285.364 160.365 284.423 160.845L281.045 162.534C278.797 163.661 276.62 164.926 274.529 166.322C265.445 160.446 257.131 153.459 249.779 145.522L225.45 119.232L216.466 75.2909ZM175.472 139.38L175.072 111.592C175.046 109.761 175.576 107.966 176.592 106.442C177.608 104.919 179.061 103.739 180.761 103.059C182.462 102.379 184.328 102.231 186.114 102.634C187.9 103.036 189.522 103.971 190.766 105.315L238.03 156.39C245.285 164.222 253.378 171.234 262.163 177.3C255.692 184.903 251.247 194.019 249.241 203.8C245.121 202.374 240.833 201.492 236.485 201.176L231.545 196.236C220.674 185.339 212.474 172.072 207.589 157.475C207.264 156.469 206.744 155.537 206.057 154.733C205.37 153.929 204.531 153.27 203.588 152.792C202.644 152.315 201.616 152.029 200.561 151.952C199.507 151.874 198.448 152.007 197.445 152.341C196.442 152.675 195.515 153.205 194.718 153.9C193.921 154.594 193.27 155.44 192.802 156.388C192.334 157.336 192.058 158.367 191.991 159.422C191.924 160.477 192.067 161.535 192.411 162.535C196.338 174.269 202.121 185.297 209.541 195.2C203.055 192.964 196.41 191.22 189.662 189.984C180.623 174.632 175.733 157.193 175.472 139.38V139.38ZM156.5 210.431C156.343 209.577 156.38 208.699 156.607 207.862C156.834 207.024 157.246 206.248 157.812 205.59C158.379 204.933 159.086 204.411 159.881 204.062C160.676 203.714 161.538 203.548 162.406 203.577L168.906 203.794C180.845 204.185 192.661 206.342 203.969 210.194C203.94 210.214 203.91 210.233 203.881 210.254C192.952 218.054 184.981 229.32 181.263 242.222C175.496 232.914 167.697 225.032 158.45 219.168C157.693 216.282 157.038 213.353 156.5 210.431ZM63.9999 280C63.9999 265.148 69.8999 250.904 80.4019 240.402C90.904 229.9 105.148 224 120 224C134.852 224 149.096 229.9 159.598 240.402C170.1 250.904 176 265.148 176 280C176.043 291.449 172.532 302.63 165.952 312H74.0519C67.4705 302.63 63.9584 291.45 63.9999 280V280ZM427.943 414.88C408.792 431.089 384.518 439.989 359.428 440H152.572C134.962 440.011 117.628 435.627 102.14 427.245C86.6528 418.863 73.502 406.749 63.8799 392H71.9999C74.1217 392 76.1565 391.157 77.6568 389.657C79.1571 388.157 79.9999 386.122 79.9999 384C79.9999 381.878 79.1571 379.843 77.6568 378.343C76.1565 376.843 74.1217 376 71.9999 376H55.2639C53.0231 370.82 51.2 365.47 49.8119 360H462.188C460.8 365.47 458.977 370.82 456.736 376H440C437.878 376 435.843 376.843 434.343 378.343C432.843 379.843 432 381.878 432 384C432 386.122 432.843 388.157 434.343 389.657C435.843 391.157 437.878 392 440 392H448.12C442.534 400.561 435.738 408.267 427.943 414.88V414.88ZM472 344H39.9999C37.8782 344 35.8434 343.157 34.3431 341.657C32.8428 340.157 31.9999 338.122 31.9999 336C31.9999 333.878 32.8428 331.843 34.3431 330.343C35.8434 328.843 37.8782 328 39.9999 328H472C474.122 328 476.156 328.843 477.657 330.343C479.157 331.843 480 333.878 480 336C480 338.122 479.157 340.157 477.657 341.657C476.156 343.157 474.122 344 472 344Z" fill="#fafeff" id="id_115"></path>
<path d="M408 280C412.418 280 416 276.418 416 272C416 267.582 412.418 264 408 264C403.582 264 400 267.582 400 272C400 276.418 403.582 280 408 280Z" fill="#fcffff" id="id_116"></path>
<path d="M384 296C388.418 296 392 292.418 392 288C392 283.582 388.418 280 384 280C379.582 280 376 283.582 376 288C376 292.418 379.582 296 384 296Z" fill="#ffffff" id="id_117"></path>
<path d="M123.536 376H105.6C103.478 376 101.444 376.843 99.9432 378.343C98.443 379.843 97.6001 381.878 97.6001 384C97.6001 386.122 98.443 388.157 99.9432 389.657C101.444 391.157 103.478 392 105.6 392H123.536C125.658 392 127.693 391.157 129.193 389.657C130.693 388.157 131.536 386.122 131.536 384C131.536 381.878 130.693 379.843 129.193 378.343C127.693 376.843 125.658 376 123.536 376Z" fill="#fcffff" id="id_118"></path>
<path d="M169.937 376H152C149.878 376 147.843 376.843 146.343 378.343C144.843 379.843 144 381.878 144 384C144 386.122 144.843 388.157 146.343 389.657C147.843 391.157 149.878 392 152 392H169.937C172.059 392 174.094 391.157 175.594 389.657C177.094 388.157 177.937 386.122 177.937 384C177.937 381.878 177.094 379.843 175.594 378.343C174.094 376.843 172.059 376 169.937 376Z" fill="#fcffff" id="id_119"></path>
<path d="M217.937 376H200C197.878 376 195.843 376.843 194.343 378.343C192.843 379.843 192 381.878 192 384C192 386.122 192.843 388.157 194.343 389.657C195.843 391.157 197.878 392 200 392H217.937C220.059 392 222.094 391.157 223.594 389.657C225.094 388.157 225.937 386.122 225.937 384C225.937 381.878 225.094 379.843 223.594 378.343C222.094 376.843 220.059 376 217.937 376Z" fill="#fafeff" id="id_120"></path>
<path d="M265.937 376H248C245.878 376 243.843 376.843 242.343 378.343C240.843 379.843 240 381.878 240 384C240 386.122 240.843 388.157 242.343 389.657C243.843 391.157 245.878 392 248 392H265.937C268.059 392 270.094 391.157 271.594 389.657C273.094 388.157 273.937 386.122 273.937 384C273.937 381.878 273.094 379.843 271.594 378.343C270.094 376.843 268.059 376 265.937 376Z" fill="#fafeff" id="id_121"></path>
<path d="M313.937 376H296C293.878 376 291.843 376.843 290.343 378.343C288.843 379.843 288 381.878 288 384C288 386.122 288.843 388.157 290.343 389.657C291.843 391.157 293.878 392 296 392H313.937C316.059 392 318.094 391.157 319.594 389.657C321.094 388.157 321.937 386.122 321.937 384C321.937 381.878 321.094 379.843 319.594 378.343C318.094 376.843 316.059 376 313.937 376Z" fill="#f5fdff" id="id_122"></path>
<path d="M361.937 376H344C341.878 376 339.843 376.843 338.343 378.343C336.843 379.843 336 381.878 336 384C336 386.122 336.843 388.157 338.343 389.657C339.843 391.157 341.878 392 344 392H361.937C364.059 392 366.094 391.157 367.594 389.657C369.094 388.157 369.937 386.122 369.937 384C369.937 381.878 369.094 379.843 367.594 378.343C366.094 376.843 364.059 376 361.937 376Z" fill="#f2fafc" id="id_123"></path>
<path d="M409.937 376H392C389.878 376 387.843 376.843 386.343 378.343C384.843 379.843 384 381.878 384 384C384 386.122 384.843 388.157 386.343 389.657C387.843 391.157 389.878 392 392 392H409.937C412.059 392 414.094 391.157 415.594 389.657C417.094 388.157 417.937 386.122 417.937 384C417.937 381.878 417.094 379.843 415.594 378.343C414.094 376.843 412.059 376 409.937 376Z" fill="#f5fdff" id="id_124"></path>
<path d="M123.536 408H112C109.878 408 107.843 408.843 106.343 410.343C104.843 411.843 104 413.878 104 416C104 418.122 104.843 420.157 106.343 421.657C107.843 423.157 109.878 424 112 424H123.536C125.658 424 127.693 423.157 129.193 421.657C130.693 420.157 131.536 418.122 131.536 416C131.536 413.878 130.693 411.843 129.193 410.343C127.693 408.843 125.658 408 123.536 408Z" fill="#f0fdff" id="id_125"></path>
<path d="M169.937 408H152C149.878 408 147.843 408.843 146.343 410.343C144.843 411.843 144 413.878 144 416C144 418.122 144.843 420.157 146.343 421.657C147.843 423.157 149.878 424 152 424H169.937C172.059 424 174.094 423.157 175.594 421.657C177.094 420.157 177.937 418.122 177.937 416C177.937 413.878 177.094 411.843 175.594 410.343C174.094 408.843 172.059 408 169.937 408Z" fill="#edfafc" id="id_126"></path>
<path d="M217.937 408H200C197.878 408 195.843 408.843 194.343 410.343C192.843 411.843 192 413.878 192 416C192 418.122 192.843 420.157 194.343 421.657C195.843 423.157 197.878 424 200 424H217.937C220.059 424 222.094 423.157 223.594 421.657C225.094 420.157 225.937 418.122 225.937 416C225.937 413.878 225.094 411.843 223.594 410.343C222.094 408.843 220.059 408 217.937 408Z" fill="#effafc" id="id_127"></path>
<path d="M265.937 408H248C245.878 408 243.843 408.843 242.343 410.343C240.843 411.843 240 413.878 240 416C240 418.122 240.843 420.157 242.343 421.657C243.843 423.157 245.878 424 248 424H265.937C268.059 424 270.094 423.157 271.594 421.657C273.094 420.157 273.937 418.122 273.937 416C273.937 413.878 273.094 411.843 271.594 410.343C270.094 408.843 268.059 408 265.937 408Z" fill="#f2fdff" id="id_128"></path>
<path d="M313.937 408H296C293.878 408 291.843 408.843 290.343 410.343C288.843 411.843 288 413.878 288 416C288 418.122 288.843 420.157 290.343 421.657C291.843 423.157 293.878 424 296 424H313.937C316.059 424 318.094 423.157 319.594 421.657C321.094 420.157 321.937 418.122 321.937 416C321.937 413.878 321.094 411.843 319.594 410.343C318.094 408.843 316.059 408 313.937 408Z" fill="#f0fdff" id="id_129"></path>
<path d="M361.937 408H344C341.878 408 339.843 408.843 338.343 410.343C336.843 411.843 336 413.878 336 416C336 418.122 336.843 420.157 338.343 421.657C339.843 423.157 341.878 424 344 424H361.937C364.059 424 366.094 423.157 367.594 421.657C369.094 420.157 369.937 418.122 369.937 416C369.937 413.878 369.094 411.843 367.594 410.343C366.094 408.843 364.059 408 361.937 408Z" fill="#f2fdff" id="id_130"></path>
<path d="M400 408H392C389.878 408 387.843 408.843 386.343 410.343C384.843 411.843 384 413.878 384 416C384 418.122 384.843 420.157 386.343 421.657C387.843 423.157 389.878 424 392 424H400C402.122 424 404.157 423.157 405.657 421.657C407.157 420.157 408 418.122 408 416C408 413.878 407.157 411.843 405.657 410.343C404.157 408.843 402.122 408 400 408Z" fill="#f5fdff" id="id_131"></path>
<path d="M223.353 260.849C222.949 259.87 222.354 258.981 221.603 258.233C220.852 257.486 219.961 256.895 218.98 256.495C217.999 256.095 216.948 255.894 215.889 255.903C214.829 255.912 213.782 256.132 212.809 256.549C211.835 256.966 210.954 257.573 210.216 258.333C209.479 259.094 208.9 259.993 208.512 260.979C208.125 261.965 207.938 263.018 207.961 264.077C207.984 265.137 208.217 266.181 208.647 267.149L212.076 275.149C212.48 276.128 213.075 277.017 213.826 277.764C214.577 278.512 215.469 279.103 216.45 279.503C217.431 279.902 218.481 280.104 219.54 280.094C220.6 280.085 221.647 279.865 222.62 279.448C223.594 279.031 224.475 278.425 225.213 277.664C225.95 276.904 226.53 276.004 226.917 275.018C227.304 274.032 227.491 272.979 227.468 271.92C227.445 270.861 227.212 269.817 226.782 268.849L223.353 260.849Z" fill="#f5f9fa" id="id_132"></path>
</svg>