<svg width="64" height="64" viewBox="0 0 64 64" fill="none" xmlns="http://www.w3.org/2000/svg">
<path d="M27.47 36.98L27.44 37H22.45L17.82 31.11C16.3649 31.1257 14.9403 30.6928 13.74 29.87C13.68 29.91 13.62 29.96 13.56 30C12.7321 30.4811 11.7832 30.7136 10.8267 30.6698C9.87023 30.626 8.94658 30.3077 8.16614 29.753C7.38571 29.1982 6.78151 28.4305 6.42576 27.5416C6.07 26.6526 5.97774 25.68 6.15999 24.74C5.35393 24.2285 4.68462 23.5283 4.20999 22.7C3.67881 21.7774 3.40174 20.7305 3.40701 19.666C3.41228 18.6014 3.69971 17.5573 4.23999 16.64C4.08999 16.44 3.93999 16.23 3.79999 16C3.40603 15.3171 3.15042 14.5633 3.04777 13.7817C2.94511 13 2.99743 12.2058 3.20172 11.4444C3.406 10.6829 3.75827 9.96918 4.2384 9.34388C4.71853 8.71858 5.31712 8.19397 5.99999 7.80001C6.68286 7.40604 7.43665 7.15043 8.21831 7.04778C8.99996 6.94513 9.79419 6.99744 10.5556 7.20173C11.3171 7.40602 12.0308 7.75828 12.6561 8.23841C13.2814 8.71854 13.806 9.31713 14.2 10C14.882 9.6057 15.635 9.34981 16.416 9.24699C17.197 9.14417 17.9907 9.19643 18.7514 9.40079C19.5122 9.60515 20.2252 9.9576 20.8496 10.4379C21.4739 10.9183 21.9974 11.5171 22.39 12.2C22.8503 12.9905 23.1208 13.8771 23.18 14.79C23.8871 15.2172 24.4751 15.8156 24.89 16.53C25.3947 17.4034 25.622 18.4096 25.5416 19.4151C25.4612 20.4206 25.077 21.3779 24.44 22.16C24.7119 23.0834 24.7901 24.0531 24.6697 25.0081C24.5492 25.9632 24.2327 26.883 23.74 27.71L27.47 36.98Z" fill="#79BD9A" id="id_157"></path>
<path d="M24.665 10.348L22.026 12.091L17.057 5.14001L20.662 3.13901L24.665 10.348Z" fill="#79BD9A" id="id_158"></path>
<path d="M24.923 11.314L27.373 12.729L28.907 3L24.785 3.069L24.923 11.314Z" fill="#79BD9A" id="id_159"></path>
<path d="M36.98 37H26.53L20.36 16.68C20.1321 15.9349 20.0567 15.1515 20.1382 14.3766C20.2198 13.6017 20.4566 12.8512 20.8346 12.1699C21.2126 11.4885 21.724 10.8903 22.3383 10.411C22.9526 9.93166 23.6572 9.58102 24.41 9.37999C24.8996 9.25037 25.4036 9.18317 25.91 9.17999C27.2199 9.18217 28.4908 9.62681 29.5163 10.4418C30.5419 11.2568 31.262 12.3944 31.56 13.67L36.98 37Z" fill="#A8DBA8" id="id_160"></path>
<path d="M11.5 34C13.9853 34 16 31.9853 16 29.5C16 27.0147 13.9853 25 11.5 25C9.0147 25 6.99998 27.0147 6.99998 29.5C6.99998 31.9853 9.0147 34 11.5 34Z" fill="#CFF09E" id="id_161"></path>
<path d="M60.79 17.9C60.5573 18.7863 60.1187 19.6051 59.51 20.29C59.7116 21.0913 59.7082 21.9304 59.5 22.73C59.2372 23.7042 58.6859 24.576 57.9184 25.231C57.151 25.8861 56.2033 26.2936 55.2 26.4C54.738 27.2444 54.1071 27.9846 53.3467 28.5747C52.5863 29.1648 51.7126 29.5921 50.78 29.83L48.14 36H43.23L44.19 28.04C43.1476 27.0245 42.4454 25.7109 42.18 24.28C42.11 24.26 42.03 24.26 41.96 24.24C40.6791 23.8977 39.5866 23.0607 38.9227 21.913C38.2589 20.7653 38.078 19.401 38.42 18.12C38.7331 16.9653 39.4543 15.9634 40.45 15.3C40.2402 14.3658 40.2608 13.3945 40.51 12.47C40.7848 11.4425 41.3278 10.5066 42.0834 9.75803C42.839 9.00948 43.78 8.47523 44.81 8.21C44.8455 7.95402 44.8956 7.70028 44.96 7.45C45.3969 5.94229 46.4074 4.66587 47.7745 3.89451C49.1417 3.12316 50.7567 2.91832 52.2732 3.32393C53.7896 3.72954 55.0867 4.71329 55.8862 6.06417C56.6858 7.41505 56.9241 9.02547 56.55 10.55C57.311 10.7542 58.0243 11.1063 58.6493 11.5862C59.2742 12.0661 59.7985 12.6644 60.1922 13.3469C60.5859 14.0294 60.8414 14.7828 60.9439 15.564C61.0465 16.3452 60.9942 17.139 60.79 17.9V17.9Z" fill="#79BD9A" id="id_162"></path>
<path d="M54.5 35C56.9853 35 59 32.9853 59 30.5C59 28.0147 56.9853 26 54.5 26C52.0147 26 50 28.0147 50 30.5C50 32.9853 52.0147 35 54.5 35Z" fill="#CFF09E" id="id_163"></path>
<path d="M41 36C44.3137 36 47 33.3137 47 30C47 26.6863 44.3137 24 41 24C37.6863 24 35 26.6863 35 30C35 33.3137 37.6863 36 41 36Z" fill="#CFF09E" id="id_164"></path>
<path d="M36 20H38C39.0609 20 40.0783 20.4214 40.8284 21.1716C41.5786 21.9217 42 22.9391 42 24H39C38.2044 24 37.4413 23.6839 36.8787 23.1213C36.3161 22.5587 36 21.7956 36 21V20Z" fill="#79BD9A" id="id_165"></path>
<path d="M45 55H19V61H45V55Z" fill="#A8DBA8" id="id_166"></path>
<path d="M59.26 46.26C57.9227 48.8921 55.8822 51.1022 53.365 52.645C50.8478 54.1878 47.9524 55.003 45 55H19C14.7565 55 10.6869 53.3143 7.68628 50.3137C4.68569 47.3131 2.99998 43.2435 2.99998 39V31H10.22C10.9378 35.7314 13.3284 40.0486 16.9577 43.1678C20.587 46.287 25.2144 48.0015 30 48H52C54.5235 48.0019 57.0115 47.4056 59.26 46.26Z" fill="#CFF09E" id="id_167"></path>
<path d="M61 31H2.99998V37H61V31Z" fill="#A8DBA8" id="id_168"></path>
<path d="M16.251 49.637C14.3523 49.1451 12.6196 48.1545 11.2326 46.7677C9.84547 45.381 8.85439 43.6486 8.362 41.75C8.33332 41.6186 8.27842 41.4943 8.20058 41.3846C8.12274 41.2749 8.02356 41.182 7.90899 41.1115C7.79442 41.041 7.6668 40.9944 7.53377 40.9744C7.40075 40.9543 7.26506 40.9614 7.13481 40.995C7.00457 41.0287 6.88246 41.0883 6.77578 41.1702C6.66911 41.2522 6.58006 41.3548 6.51398 41.472C6.44789 41.5891 6.40613 41.7184 6.39119 41.8521C6.37624 41.9858 6.38842 42.1211 6.427 42.25C7.00849 44.494 8.17941 46.5417 9.81847 48.1809C11.4575 49.8201 13.5051 50.9913 15.749 51.573C16.0035 51.6329 16.2713 51.5906 16.4951 51.4554C16.7188 51.3202 16.8807 51.1028 16.9461 50.8496C17.0115 50.5965 16.9751 50.3278 16.8448 50.1012C16.7145 49.8745 16.5006 49.7079 16.249 49.637H16.251Z" fill="#fafeff" id="id_169"></path>
<path d="M61 30H59.975C59.8442 28.5823 59.168 27.2708 58.089 26.342C59.2523 25.5413 60.0945 24.3545 60.466 22.992C60.6773 22.1989 60.7179 21.37 60.585 20.56C61.129 19.844 61.5281 19.0288 61.76 18.16C62.1964 16.5236 62.0257 14.7846 61.2793 13.2644C60.533 11.7442 59.2615 10.5455 57.7 9.89001C57.9295 8.12713 57.4796 6.34298 56.4417 4.89966C55.4038 3.45635 53.8557 2.46199 52.1114 2.11842C50.3672 1.77484 48.5576 2.10777 47.0498 3.04966C45.5421 3.99154 44.4492 5.4718 43.993 7.19001C43.972 7.27101 43.952 7.35301 43.934 7.43501C42.8722 7.81805 41.9186 8.45184 41.1543 9.28249C40.39 10.1131 39.8375 11.1161 39.544 12.206C39.3097 13.0735 39.2468 13.9784 39.359 14.87C38.4363 15.6503 37.772 16.6922 37.454 17.858C37.3541 18.2316 37.2915 18.6141 37.267 19H36C35.7348 19 35.4804 19.1054 35.2929 19.2929C35.1054 19.4804 35 19.7348 35 20V21C35.0014 21.6727 35.1727 22.3342 35.498 22.923C35.8234 23.5118 36.2922 24.0088 36.861 24.368C36.3093 24.7745 35.8199 25.2593 35.408 25.807L32.534 13.447C32.3306 12.5569 31.9485 11.7173 31.411 10.9792C30.8735 10.2411 30.1917 9.61983 29.407 9.15301C29.269 9.07101 29.127 9.00001 28.985 8.92801L29.9 3.15601C29.9226 3.01307 29.9139 2.86694 29.8745 2.72771C29.835 2.58847 29.7659 2.45944 29.6718 2.34954C29.5776 2.23963 29.4608 2.15146 29.3293 2.09111C29.1977 2.03077 29.0547 1.99968 28.91 2.00001H28.894L24.764 2.07001C24.6326 2.07209 24.5029 2.10006 24.3823 2.15231C24.2617 2.20456 24.1526 2.28008 24.0612 2.37453C23.9698 2.46898 23.8979 2.58053 23.8497 2.70278C23.8014 2.82503 23.7777 2.9556 23.78 3.08701L23.846 6.82901L21.535 2.65601C21.4713 2.54095 21.3855 2.43959 21.2825 2.35774C21.1796 2.27588 21.0615 2.21515 20.935 2.17901C20.8087 2.14223 20.6764 2.13099 20.5457 2.14593C20.4151 2.16086 20.2887 2.20169 20.174 2.26601L16.574 4.26601C16.4508 4.33441 16.3434 4.42808 16.259 4.54088C16.1745 4.65368 16.1148 4.78305 16.0838 4.92053C16.0529 5.05801 16.0513 5.20048 16.0793 5.3386C16.1072 5.47672 16.164 5.60738 16.246 5.72201L18.061 8.26001C16.8673 8.10457 15.6537 8.26312 14.54 8.72001C13.455 7.31392 11.8762 6.37281 10.1233 6.08731C8.37036 5.80182 6.57447 6.19329 5.0994 7.18243C3.62434 8.17157 2.58041 9.68441 2.17908 11.4145C1.77775 13.1445 2.04905 14.9625 2.93799 16.5C2.98099 16.575 3.02599 16.647 3.07099 16.719C2.59127 17.7406 2.3653 18.8629 2.41231 19.9906C2.45932 21.1182 2.77791 22.2179 3.34099 23.196C3.78843 23.9752 4.38394 24.6594 5.09399 25.21C4.99235 26.4143 5.25952 27.6211 5.85999 28.67C5.91306 28.7549 5.97047 28.837 6.03199 28.916C6.01069 29.1099 6.00001 29.3049 5.99999 29.5C5.99999 29.669 6.02799 29.833 6.04299 30H2.99999C2.73478 30 2.48042 30.1054 2.29289 30.2929C2.10535 30.4804 1.99999 30.7348 1.99999 31V39C2.00717 43.3314 3.66668 47.4968 6.63997 50.6464C9.61325 53.796 13.6762 55.6926 18 55.949V61C18 61.2652 18.1054 61.5196 18.2929 61.7071C18.4804 61.8947 18.7348 62 19 62H45C45.2652 62 45.5196 61.8947 45.7071 61.7071C45.8946 61.5196 46 61.2652 46 61V55.949C50.3238 55.6926 54.3867 53.796 57.36 50.6464C60.3333 47.4968 61.9928 43.3314 62 39V31C62 30.7348 61.8946 30.4804 61.7071 30.2929C61.5196 30.1054 61.2652 30 61 30ZM57.949 30H51.049C51.1645 29.1671 51.5774 28.4041 52.2115 27.8518C52.8456 27.2995 53.6581 26.9953 54.499 26.9953C55.3399 26.9953 56.1524 27.2995 56.7865 27.8518C57.4206 28.4041 57.8335 29.1671 57.949 30V30ZM39.386 18.379C39.6368 17.4565 40.2134 16.6561 41.009 16.126C41.1739 16.0137 41.3014 15.8547 41.3751 15.6694C41.4489 15.484 41.4656 15.2809 41.423 15.086C41.2503 14.3069 41.2685 13.4976 41.476 12.727C41.7067 11.8713 42.1602 11.0921 42.7904 10.469C43.4206 9.84585 44.2048 9.40106 45.063 9.18001C45.2557 9.13045 45.4293 9.02452 45.5615 8.87577C45.6936 8.72702 45.7784 8.54222 45.805 8.34501C45.89 7.66301 46.1146 7.00586 46.4649 6.41458C46.8152 5.8233 47.2837 5.31058 47.841 4.90845C48.3984 4.50632 49.0326 4.2234 49.7042 4.07736C50.3758 3.93133 51.0702 3.92531 51.7442 4.05968C52.4182 4.19405 53.0573 4.46593 53.6215 4.85835C54.1857 5.25076 54.663 5.75527 55.0235 6.34039C55.384 6.92551 55.62 7.57867 55.7168 8.25909C55.8136 8.93951 55.7691 9.63257 55.586 10.295C55.552 10.4219 55.5433 10.5542 55.5604 10.6844C55.5775 10.8146 55.6201 10.9402 55.6857 11.054C55.7514 11.1677 55.8388 11.2674 55.943 11.3474C56.0472 11.4274 56.1661 11.486 56.293 11.52C57.5729 11.8652 58.6637 12.7038 59.3264 13.8519C59.989 15.0001 60.1694 16.3641 59.828 17.645C59.6305 18.3814 59.2653 19.0621 58.761 19.634C58.6559 19.7542 58.581 19.8978 58.5427 20.0528C58.5045 20.2078 58.5039 20.3697 58.541 20.525C58.7024 21.165 58.6999 21.8352 58.534 22.474C58.3607 23.1044 58.0353 23.6827 57.5863 24.158C57.1373 24.6333 56.5785 24.9911 55.959 25.2C55.484 25.0676 54.9931 25.0003 54.5 25C53.1287 25.0022 51.8075 25.5158 50.795 26.4406C49.7824 27.3653 49.1512 28.6345 49.025 30H48.235L49.388 25.7L54.812 23.323C54.9363 23.2732 55.0493 23.199 55.1444 23.1047C55.2395 23.0104 55.3146 22.8979 55.3654 22.774C55.4162 22.6501 55.4416 22.5173 55.4401 22.3834C55.4386 22.2495 55.4102 22.1172 55.3566 21.9945C55.303 21.8718 55.2253 21.7611 55.1281 21.669C55.0309 21.5768 54.9162 21.5052 54.7908 21.4582C54.6654 21.4113 54.5319 21.39 54.3981 21.3956C54.2643 21.4012 54.133 21.4337 54.012 21.491L50.053 23.226L50.725 20.72C50.963 19.832 51.163 18.937 51.339 18.038L55.632 16.316C55.8782 16.2173 56.0752 16.0249 56.1796 15.781C56.284 15.5371 56.2872 15.2618 56.1885 15.0155C56.0898 14.7693 55.8974 14.5723 55.6535 14.4679C55.4096 14.3635 55.1343 14.3603 54.888 14.459L51.723 15.729C52.0709 13.1612 52.1687 10.5657 52.015 7.97901C52.0071 7.84768 51.9735 7.7192 51.9159 7.60089C51.8584 7.48258 51.7781 7.37676 51.6797 7.28947C51.5812 7.20219 51.4666 7.13514 51.3422 7.09216C51.2179 7.04919 51.0863 7.03113 50.955 7.03901C50.8237 7.04689 50.6952 7.08055 50.5769 7.13809C50.4586 7.19562 50.3528 7.2759 50.2655 7.37433C50.1782 7.47276 50.1111 7.58741 50.0682 7.71176C50.0252 7.8361 50.0071 7.96768 50.015 8.09901C50.1547 10.4571 50.0737 12.823 49.773 15.166L47.933 13.534C47.8345 13.4469 47.7198 13.38 47.5955 13.3372C47.4711 13.2944 47.3396 13.2765 47.2083 13.2845C47.0771 13.2925 46.9487 13.3263 46.8305 13.384C46.7123 13.4416 46.6066 13.522 46.5195 13.6205C46.4324 13.719 46.3655 13.8337 46.3227 13.958C46.2799 14.0824 46.262 14.2139 46.27 14.3452C46.278 14.4764 46.3118 14.6048 46.3695 14.723C46.4271 14.8412 46.5075 14.9469 46.606 15.034L49.406 17.514C49.233 18.414 49.032 19.314 48.793 20.206L48.067 22.917L44.537 18.9C44.4523 18.7949 44.3472 18.708 44.2281 18.6445C44.1089 18.5811 43.9781 18.5425 43.8436 18.5309C43.7091 18.5194 43.5737 18.5352 43.4455 18.5774C43.3173 18.6197 43.1989 18.6874 43.0976 18.7766C42.9962 18.8657 42.914 18.9745 42.8558 19.0963C42.7976 19.2181 42.7647 19.3505 42.7591 19.4854C42.7534 19.6202 42.7751 19.7548 42.8229 19.8811C42.8707 20.0074 42.9435 20.1226 43.037 20.22L47.444 25.235L47.089 26.56C46.1841 24.965 44.691 23.7873 42.929 23.279C42.7865 22.3129 42.3634 21.4098 41.7122 20.682C41.061 19.9542 40.2104 19.4337 39.266 19.185C39.2775 18.9129 39.3177 18.6427 39.386 18.379V18.379ZM36 30C36 28.6739 36.5268 27.4022 37.4645 26.4645C38.4021 25.5268 39.6739 25 41 25C42.3261 25 43.5978 25.5268 44.5355 26.4645C45.4732 27.4022 46 28.6739 46 30H36ZM38 21C38.6203 21.0008 39.2251 21.1934 39.7316 21.5514C40.2381 21.9095 40.6214 22.4155 40.829 23H39C38.4696 23 37.9609 22.7893 37.5858 22.4142C37.2107 22.0391 37 21.5304 37 21H38ZM30.587 13.9L31.275 16.859L29.633 17.299C29.5056 17.3325 29.3861 17.3908 29.2813 17.4705C29.1765 17.5503 29.0885 17.65 29.0223 17.7639C28.9561 17.8778 28.9131 18.0036 28.8957 18.1342C28.8784 18.2648 28.8869 18.3975 28.921 18.5247C28.955 18.652 29.0139 18.7712 29.0941 18.8756C29.1744 18.9801 29.2745 19.0676 29.3887 19.1332C29.5029 19.1989 29.629 19.2413 29.7596 19.2581C29.8902 19.2748 30.0229 19.2656 30.15 19.231L31.728 18.808L33.088 24.656L30.737 25.286C30.5022 25.3488 30.2984 25.495 30.1635 25.6972C30.0287 25.8994 29.9721 26.1437 30.0043 26.3846C30.0366 26.6255 30.1554 26.8464 30.3386 27.006C30.5219 27.1657 30.757 27.2531 31 27.252C31.0878 27.2521 31.1753 27.2403 31.26 27.217L33.546 26.605L34.092 28.953C34.035 29.2992 34.0042 29.6492 34 30H25.451L23.942 25.036L26.356 24.389C26.4864 24.3584 26.6094 24.302 26.7176 24.223C26.8258 24.144 26.917 24.044 26.9858 23.9291C27.0546 23.8142 27.0997 23.6866 27.1182 23.5539C27.1368 23.4212 27.1285 23.2862 27.0938 23.1568C27.0592 23.0273 26.9989 22.9062 26.9165 22.8006C26.8342 22.6949 26.7314 22.6069 26.6144 22.5417C26.4973 22.4765 26.3684 22.4355 26.2352 22.4212C26.102 22.4068 25.9673 22.4193 25.839 22.458L23.36 23.121L21.905 18.335L24.545 17.627C24.6749 17.5959 24.7973 17.5391 24.9049 17.4599C25.0125 17.3807 25.1031 17.2807 25.1714 17.1659C25.2397 17.0511 25.2844 16.9238 25.3026 16.7914C25.3209 16.6591 25.3125 16.5244 25.2779 16.3954C25.2433 16.2664 25.1832 16.1456 25.1011 16.0402C25.019 15.9348 24.9167 15.8469 24.8001 15.7817C24.6835 15.7165 24.555 15.6753 24.4222 15.6606C24.2894 15.6459 24.155 15.6579 24.027 15.696L21.327 16.42L21.316 16.385C21.1391 15.772 21.0862 15.1299 21.1604 14.4962C21.2346 13.8625 21.4344 13.2499 21.7481 12.6943C22.0618 12.1387 22.4831 11.6513 22.9874 11.2604C23.4917 10.8696 24.0689 10.5832 24.6851 10.418C25.3014 10.2528 25.9444 10.2121 26.5766 10.2984C27.2088 10.3846 27.8174 10.596 28.3669 10.9202C28.9164 11.2444 29.3958 11.6749 29.777 12.1866C30.1582 12.6982 30.4336 13.2807 30.587 13.9V13.9ZM19.97 30H16.957C16.972 29.833 17 29.669 17 29.5C16.9989 28.5137 16.7307 27.5462 16.224 26.7L18.135 26.823L19.97 30ZM22.28 30L19.84 25.774L21.1 22.555L23.36 30H22.28ZM27.736 4.02001L27.063 8.28601C26.6694 8.2172 26.2705 8.18373 25.871 8.18601L25.8 4.05301L27.736 4.02001ZM20.271 4.50001L22.744 8.96801C22.3299 9.18441 21.9397 9.44384 21.58 9.74201L18.525 5.47001L20.271 4.50001ZM7.14699 24.931C7.18435 24.7342 7.16171 24.5306 7.08201 24.3468C7.00231 24.1629 6.86922 24.0073 6.69999 23.9C6.02837 23.473 5.47013 22.8897 5.07299 22.2C4.63128 21.4318 4.40132 20.5601 4.40659 19.674C4.41186 18.7878 4.65217 17.9189 5.10299 17.156C5.20418 16.9842 5.25168 16.786 5.23938 16.587C5.22709 16.3879 5.15556 16.1971 5.03399 16.039C4.61525 15.4961 4.31263 14.873 4.14493 14.2082C3.97723 13.5434 3.94804 12.8512 4.05918 12.1747C4.17031 11.4982 4.41939 10.8517 4.79094 10.2755C5.16249 9.69932 5.64857 9.20569 6.21897 8.82531C6.78938 8.44493 7.43191 8.18592 8.10666 8.06437C8.7814 7.94283 9.47393 7.96135 10.1412 8.11879C10.8085 8.27622 11.4363 8.56921 11.9855 8.97954C12.5348 9.38987 12.9938 9.90877 13.334 10.504C13.4666 10.7337 13.685 10.9013 13.9412 10.9699C14.1974 11.0385 14.4703 11.0026 14.7 10.87C15.537 10.3834 16.4982 10.1525 17.4649 10.2058C18.4316 10.2591 19.3616 10.5943 20.14 11.17L20.219 11.28C20.131 11.415 20.042 11.549 19.963 11.692C19.5169 12.4886 19.2371 13.3675 19.1405 14.2754C19.0439 15.1833 19.1325 16.1013 19.401 16.974L20.166 19.489C20.158 19.506 20.142 19.518 20.135 19.537L18.562 23.563L17.262 21.316C16.803 20.516 16.305 19.754 15.795 18.996L17.617 14.731C17.7212 14.487 17.7243 14.2116 17.6254 13.9654C17.5266 13.7191 17.334 13.5222 17.09 13.418C16.846 13.3138 16.5706 13.3107 16.3243 13.4096C16.0781 13.5084 15.8812 13.701 15.777 13.945L14.426 17.1C12.8623 15.0279 11.0999 13.1135 9.16399 11.384C8.96508 11.2082 8.70447 11.1185 8.43948 11.1349C8.17449 11.1512 7.92683 11.2721 7.75099 11.471C7.57516 11.6699 7.48554 11.9305 7.50185 12.1955C7.51817 12.4605 7.63908 12.7082 7.83799 12.884C9.59533 14.4543 11.2023 16.1851 12.638 18.054L10.206 18.2C9.94078 18.2078 9.68953 18.3207 9.50753 18.5138C9.32552 18.7068 9.22767 18.9643 9.2355 19.2295C9.24332 19.4947 9.35618 19.746 9.54925 19.928C9.74232 20.11 9.99978 20.2078 10.265 20.2C10.285 20.2 10.305 20.2 10.325 20.2L14.049 19.977C14.566 20.738 15.064 21.513 15.526 22.314L16.926 24.744L13.97 24.553C13.942 24.553 13.919 24.563 13.893 24.564C12.7456 24 11.4367 23.8562 10.1942 24.1577C8.95174 24.4592 7.85432 25.1869 7.09299 26.214C7.04466 25.7861 7.06287 25.3533 7.14699 24.931V24.931ZM7.99999 29.5C7.99999 28.5717 8.36874 27.6815 9.02512 27.0251C9.6815 26.3688 10.5717 26 11.5 26C12.4283 26 13.3185 26.3688 13.9749 27.0251C14.6312 27.6815 15 28.5717 15 29.5C14.9977 29.6674 14.9836 29.8345 14.958 30H8.04199C8.01634 29.8345 8.00231 29.6674 7.99999 29.5V29.5ZM3.99999 32H46.888C46.902 32 46.917 32.006 46.932 32.006C46.947 32.006 46.955 32 46.967 32H60V36H3.99999V32ZM44 60H20V56H44V60ZM45 54H19C15.0231 53.9955 11.2104 52.4137 8.39836 49.6016C5.58629 46.7896 4.00449 42.9769 3.99999 39V38H60V39C59.9955 42.9769 58.4137 46.7896 55.6016 49.6016C52.7896 52.4137 48.9769 53.9955 45 54V54Z" fill="#fafeff" id="id_170"></path>
</svg>