<?xml version="1.0" encoding="UTF-8" standalone="no"?> <svg width="512" height="512" viewBox="0 0 512 512" fill="none" xmlns="http://www.w3.org/2000/svg">
<path d="M232 174.641V90.6406C232 77.3858 221.255 66.6406 208 66.6406C194.745 66.6406 184 77.3858 184 90.6406V174.641L208 202.641L232 174.641Z" fill="#6A1300"/>
<path d="M212 190.641V80.6406C212 72.9086 205.732 66.6406 198 66.6406C190.268 66.6406 184 72.9086 184 80.6406V174.641L200 202.641L212 190.641Z" fill="#853000"/>
<path d="M255.547 59.0065L231.997 112.001L285.17 112C296.793 112 307.501 105.698 313.144 95.5381L337.39 51.8859C340.351 46.5536 336.496 40.0014 330.396 40.0014L284.79 40.0014C272.143 40.0014 260.683 47.4496 255.547 59.0065Z" fill="#009F6F"/>
<path d="M255.593 61.2352L243.176 95.9985L267.393 95.9973C279.51 95.9967 290.588 89.1512 296.01 78.3137L309.384 51.5777C312.045 46.2584 308.177 39.9986 302.23 39.9985L285.728 39.9985C272.205 39.9985 260.141 48.4997 255.593 61.2352Z" fill="#00C75C"/>
<path d="M32 304C32 396.784 110.798 472 208 472C226.771 472 244.856 469.195 261.819 464L384 304C384 211.216 305.202 136 208 136C110.798 136 32 211.216 32 304Z" fill="#EA4926"/>
<path d="M32 288C32 371.947 103.634 440 192 440C209.065 440 225.505 437.462 240.927 432.762L352 304.432C352 220.485 280.366 136 192 136C103.634 136 32 204.053 32 288Z" fill="#FF792D"/>
<path d="M480 304C480 326.062 475.655 347.908 467.212 368.291C458.769 388.674 446.394 407.194 430.794 422.794C415.194 438.394 396.674 450.769 376.291 459.212C355.908 467.655 334.062 472 312 472C289.938 472 268.092 467.655 247.709 459.212C227.326 450.769 208.806 438.394 193.206 422.794C177.606 407.194 165.231 388.674 156.788 368.291C148.345 347.908 144 326.062 144 304L312 304H480Z" fill="#EA4926"/>
<path d="M464 300C464 320.486 459.861 340.772 451.821 359.699C443.78 378.625 431.994 395.823 417.137 410.309C402.28 424.795 384.641 436.285 365.229 444.125C345.817 451.965 325.012 456 304 456C282.988 456 262.183 451.965 242.771 444.125C223.359 436.285 205.72 424.795 190.863 410.309C176.006 395.823 164.22 378.625 156.179 359.699C148.139 340.772 144 320.486 144 300L304 300H464Z" fill="#FF792D"/>
<path d="M430.257 352.983C436.689 337.454 440 320.809 440 304H184C184 320.809 187.311 337.454 193.743 352.983C200.176 368.513 209.604 382.624 221.49 394.51C233.376 406.396 247.487 415.824 263.017 422.257C278.546 428.689 295.191 432 312 432C328.809 432 345.454 428.689 360.983 422.257C376.513 415.824 390.624 406.396 402.51 394.51C414.396 382.624 423.824 368.513 430.257 352.983Z" fill="#E5AD1C"/>
<path d="M431.17 346.861C437 333.272 440 318.708 440 304H208C208 318.708 211 333.272 216.83 346.861C222.66 360.449 231.204 372.796 241.976 383.196C252.747 393.596 265.535 401.846 279.609 407.475C293.682 413.103 308.767 416 324 416C339.233 416 354.318 413.103 368.391 407.475C382.465 401.846 395.253 393.596 406.024 383.196C416.796 372.796 425.34 360.449 431.17 346.861Z" fill="#FFF730"/>
<path d="M341.564 316.246C343.172 312.363 344 308.202 344 304H280C280 308.202 280.828 312.363 282.436 316.246C284.044 320.128 286.401 323.656 289.373 326.627C292.344 329.599 295.872 331.956 299.754 333.564C303.637 335.172 307.798 336 312 336C316.202 336 320.363 335.172 324.246 333.564C328.128 331.956 331.656 329.599 334.627 326.627C337.599 323.656 339.956 320.128 341.564 316.246Z" fill="white"/>
<path fill-rule="evenodd" clip-rule="evenodd" d="M208 144C114.861 144 40 215.981 40 304C40 392.019 114.861 464 208 464C225.971 464 243.267 461.315 259.477 456.351L264.162 471.649C246.445 477.075 227.571 480 208 480C106.734 480 24 401.549 24 304C24 206.451 106.734 128 208 128C309.266 128 392 206.451 392 304H376C376 215.981 301.139 144 208 144Z" fill="black"/>
<path fill-rule="evenodd" clip-rule="evenodd" d="M208 72C199.163 72 192 79.1634 192 88V140H176V88C176 70.3269 190.327 56 208 56C225.673 56 240 70.3269 240 88V140H224V88C224 79.1634 216.837 72 208 72Z" fill="black"/>
<path fill-rule="evenodd" clip-rule="evenodd" d="M327.999 48L283.599 48C274.507 48 266.142 53.4824 262.359 62.1897L244.197 104L283.967 103.999C292.326 103.999 300.127 99.3605 304.274 91.722L327.974 48.0673C327.986 48.0454 327.993 48.0305 327.996 48.0223L328 48.0091C328 48.0088 328 48.0099 328 48.0086C328 48.0067 328 48.0038 327.999 48ZM283.599 32L328.17 32C340.505 32 347.677 45.3113 342.036 55.7014L318.335 99.356C311.452 112.035 298.323 119.999 283.967 119.999L232 120C229.304 120 226.789 118.642 225.311 116.388C223.832 114.133 223.588 111.286 224.662 108.813L247.684 55.8149C253.941 41.4115 267.975 32 283.599 32Z" fill="black"/>
<path fill-rule="evenodd" clip-rule="evenodd" d="M136 304C136 299.582 139.582 296 144 296L480 296C484.418 296 488 299.582 488 304C488 327.113 483.448 349.999 474.603 371.352C465.758 392.706 452.794 412.108 436.451 428.451C420.108 444.794 400.706 457.758 379.352 466.603C357.999 475.448 335.113 480 312 480C288.887 480 266.001 475.448 244.648 466.603C223.294 457.758 203.892 444.794 187.549 428.451C171.206 412.108 158.242 392.706 149.397 371.352C140.552 349.999 136 327.113 136 304ZM152.2 312C153.115 330.278 157.161 348.285 164.179 365.229C172.22 384.641 184.006 402.28 198.863 417.137C213.72 431.994 231.359 443.78 250.771 451.821C270.183 459.861 290.988 464 312 464C333.011 464 353.817 459.861 373.229 451.821C392.641 443.78 410.28 431.994 425.137 417.137C439.994 402.28 451.78 384.641 459.821 365.229C466.839 348.285 470.885 330.278 471.8 312L152.2 312Z" fill="black"/>
<path fill-rule="evenodd" clip-rule="evenodd" d="M192 304C192 319.759 195.104 335.363 201.134 349.922C207.165 364.481 216.004 377.71 227.147 388.853C238.29 399.996 251.519 408.835 266.078 414.866C280.637 420.896 296.241 424 312 424C327.759 424 343.363 420.896 357.922 414.866C372.481 408.835 385.71 399.996 396.853 388.853C407.996 377.71 416.835 364.481 422.866 349.922C428.896 335.363 432 319.759 432 304H448C448 321.86 444.482 339.545 437.648 356.045C430.813 372.545 420.795 387.538 408.167 400.167C395.538 412.795 380.545 422.813 364.045 429.648C347.545 436.482 329.86 440 312 440C294.14 440 276.455 436.482 259.955 429.648C243.455 422.813 228.462 412.795 215.833 400.167C203.205 387.538 193.187 372.545 186.352 356.045C179.518 339.545 176 321.86 176 304L192 304Z" fill="black"/>
<path fill-rule="evenodd" clip-rule="evenodd" d="M288 304C288 307.152 288.621 310.273 289.827 313.184C291.033 316.096 292.801 318.742 295.029 320.971C297.258 323.199 299.904 324.967 302.816 326.173C305.727 327.379 308.848 328 312 328C315.152 328 318.273 327.379 321.184 326.173C324.096 324.967 326.742 323.199 328.971 320.971C331.199 318.742 332.967 316.096 334.173 313.184C335.379 310.273 336 307.152 336 304H352C352 309.253 350.965 314.454 348.955 319.307C346.945 324.16 343.999 328.57 340.284 332.284C336.57 335.999 332.16 338.945 327.307 340.955C322.454 342.965 317.253 344 312 344C306.747 344 301.546 342.965 296.693 340.955C291.84 338.945 287.43 335.999 283.716 332.284C280.001 328.57 277.055 324.16 275.045 319.307C273.035 314.454 272 309.253 272 304L288 304Z" fill="black"/>
<path fill-rule="evenodd" clip-rule="evenodd" d="M196.281 360.914L280.281 316.914L287.705 331.087L203.705 375.087L196.281 360.914Z" fill="black"/>
<path fill-rule="evenodd" clip-rule="evenodd" d="M427.718 360.914L343.718 316.914L336.294 331.087L420.294 375.087L427.718 360.914Z" fill="black"/>
<path fill-rule="evenodd" clip-rule="evenodd" d="M260.484 421.266L292.484 333.266L307.521 338.734L275.521 426.734L260.484 421.266Z" fill="black"/>
<path fill-rule="evenodd" clip-rule="evenodd" d="M363.516 421.266L331.516 333.266L316.479 338.734L348.479 426.734L363.516 421.266Z" fill="black"/>
</svg>
